<svg width="24" height="24" viewBox="0 0 24 24" fill="none" xmlns="http://www.w3.org/2000/svg">
<g clip-path="url(#clip0_8951_7623)">
<path d="M19.3026 5.36286C21.685 8.8656 22.8615 12.8166 22.4217 17.3651C22.4199 17.3844 22.4098 17.402 22.394 17.4136C20.5899 18.7384 18.842 19.5423 17.1185 20.0755C17.1051 20.0796 17.0908 20.0793 17.0775 20.0748C17.0642 20.0704 17.0526 20.0618 17.0444 20.0504C16.6463 19.4964 16.2845 18.9124 15.9676 18.2991C15.9494 18.2629 15.966 18.2194 16.0034 18.2052C16.578 17.9887 17.1243 17.7293 17.6499 17.4221C17.6913 17.3978 17.6939 17.3385 17.6557 17.31C17.5441 17.2272 17.4336 17.1402 17.3279 17.0532C17.3081 17.0371 17.2815 17.0339 17.2591 17.0447C13.8473 18.6202 10.1099 18.6202 6.65777 17.0447C6.63535 17.0347 6.60872 17.0381 6.58947 17.054C6.484 17.141 6.37326 17.2272 6.26277 17.31C6.22454 17.3385 6.2277 17.3978 6.26937 17.4221C6.79488 17.7235 7.34123 17.9887 7.915 18.2063C7.95218 18.2205 7.96985 18.2629 7.95139 18.2991C7.6413 18.9132 7.27953 19.4972 6.87399 20.0512C6.85632 20.0736 6.82731 20.0839 6.79989 20.0755C5.08464 19.5423 3.3367 18.7384 1.53259 17.4136C1.51756 17.402 1.50675 17.3836 1.50517 17.3643C1.1376 13.4299 1.88672 9.44623 4.62136 5.36207C4.62795 5.35126 4.63797 5.34282 4.64957 5.33781C5.99514 4.72027 7.43668 4.26595 8.94336 4.00648C8.97078 4.00226 8.9982 4.01492 9.01244 4.03918C9.1986 4.36878 9.41139 4.79146 9.55536 5.13688C11.1435 4.8943 12.7565 4.8943 14.3778 5.13688C14.5218 4.79885 14.7272 4.36878 14.9126 4.03918C14.9192 4.02714 14.9294 4.0175 14.9418 4.01163C14.9542 4.00576 14.9682 4.00396 14.9817 4.00648C16.4891 4.26674 17.9307 4.72106 19.2752 5.33781C19.2871 5.34282 19.2968 5.35126 19.3026 5.36286V5.36286ZM10.3628 12.8435C10.3794 11.6804 9.53137 10.718 8.46689 10.718C7.41111 10.718 6.57128 11.672 6.57128 12.8435C6.57128 14.0148 7.42772 14.9688 8.46689 14.9688C9.52293 14.9688 10.3628 14.0148 10.3628 12.8435V12.8435ZM17.3719 12.8435C17.3885 11.6804 16.5405 10.718 15.4763 10.718C14.4203 10.718 13.5805 11.672 13.5805 12.8435C13.5805 14.0148 14.4369 14.9688 15.4763 14.9688C16.5405 14.9688 17.3719 14.0148 17.3719 12.8435V12.8435Z" fill="white"/>
</g>
<defs>
<clipPath id="clip0_8951_7623">
<rect width="22" height="16.0864" fill="white" transform="translate(1 4)"/>
</clipPath>
</defs>
</svg>
