<svg version="1.2" xmlns="http://www.w3.org/2000/svg" viewBox="0 0 32 31" width="25" height="24">
	<title>Heart-svg</title>
	<style>
		.s0 { fill: #ffffff } 
		.s1 { fill: none;stroke: #ffffff;stroke-linecap: square;stroke-width: 1.3 } 
	</style>
	<g id="Layer">
		<path id="Layer" class="s0" d="m21.9 13.6l-5.9 5.9-5.9-5.9c-1.5-1.4-1.5-3.7 0-5.1 1.4-1.3 3.6-1.3 5.1 0l0.8 0.9 0.8-0.9c1.5-1.3 3.7-1.3 5.1 0 1.5 1.4 1.5 3.7 0 5.1z"/>
		<path id="Layer" class="s1" d="m21.9 13.6l-5.9 5.9-5.9-5.9c-1.5-1.4-1.5-3.7 0-5.1 1.4-1.3 3.6-1.3 5.1 0l0.8 0.9 0.8-0.9c1.5-1.3 3.7-1.3 5.1 0 1.5 1.4 1.5 3.7 0 5.1z"/>
	</g>
</svg>