<svg width="24" height="24" viewBox="0 0 24 24" fill="none" xmlns="http://www.w3.org/2000/svg">
<path d="M12.0057 3.80113C14.6792 3.80113 14.9958 3.81285 16.0472 3.85974C17.0243 3.90272 17.552 4.06681 17.9037 4.20356C18.3688 4.38328 18.705 4.60207 19.0528 4.9498C19.4046 5.30143 19.6196 5.63352 19.7994 6.09846C19.9362 6.45009 20.1003 6.98144 20.1433 7.95429C20.1902 9.00918 20.202 9.32565 20.202 11.9941C20.202 14.6665 20.1902 14.983 20.1433 16.034C20.1003 17.0107 19.9362 17.5382 19.7994 17.8898C19.6196 18.3548 19.4007 18.6908 19.0528 19.0385C18.7011 19.3901 18.3688 19.605 17.9037 19.7847C17.552 19.9215 17.0204 20.0856 16.0472 20.1285C14.9919 20.1754 14.6753 20.1871 12.0057 20.1871C9.3323 20.1871 9.01571 20.1754 7.96431 20.1285C6.98718 20.0856 6.45952 19.9215 6.10775 19.7847C5.64264 19.605 5.3065 19.3862 4.95864 19.0385C4.60687 18.6869 4.3919 18.3548 4.21211 17.8898C4.07531 17.5382 3.91115 17.0068 3.86816 16.034C3.82126 14.9791 3.80953 14.6626 3.80953 11.9941C3.80953 9.32174 3.82126 9.00527 3.86816 7.95429C3.91115 6.97753 4.07531 6.45009 4.21211 6.09846C4.3919 5.63352 4.61078 5.29752 4.95864 4.9498C5.31041 4.59816 5.64264 4.38328 6.10775 4.20356C6.45952 4.06681 6.99108 3.90272 7.96431 3.85974C9.01571 3.81285 9.3323 3.80113 12.0057 3.80113ZM12.0057 2C9.28931 2 8.94926 2.01172 7.88223 2.05861C6.81911 2.10549 6.08821 2.2774 5.45503 2.52354C4.79448 2.7814 4.23556 3.12131 3.68055 3.68002C3.12163 4.23481 2.78159 4.79351 2.52362 5.44989C2.27738 6.08674 2.10541 6.81344 2.05851 7.87615C2.0116 8.94667 1.99988 9.28658 1.99988 12.002C1.99988 14.7173 2.0116 15.0572 2.05851 16.1239C2.10541 17.1866 2.27738 17.9172 2.52362 18.5501C2.78159 19.2104 3.12163 19.7691 3.68055 20.3239C4.23556 20.8787 4.79448 21.2225 5.45112 21.4765C6.08821 21.7226 6.8152 21.8945 7.87832 21.9414C8.94535 21.9883 9.2854 22 12.0018 22C14.7183 22 15.0583 21.9883 16.1253 21.9414C17.1885 21.8945 17.9194 21.7226 18.5525 21.4765C19.2092 21.2225 19.7681 20.8787 20.3231 20.3239C20.8781 19.7691 21.2221 19.2104 21.4761 18.554C21.7224 17.9172 21.8943 17.1905 21.9412 16.1278C21.9882 15.0611 21.9999 14.7212 21.9999 12.0059C21.9999 9.29049 21.9882 8.95058 21.9412 7.88396C21.8943 6.82125 21.7224 6.09064 21.4761 5.45771C21.2299 4.79351 20.8899 4.23481 20.3309 3.68002C19.7759 3.12522 19.217 2.7814 18.5604 2.52745C17.9233 2.2813 17.1963 2.1094 16.1332 2.06251C15.0622 2.01172 14.7222 2 12.0057 2Z" fill="white"/>
<path d="M12.0068 6.86426C9.1692 6.86426 6.86707 9.16549 6.86707 12.002C6.86707 14.8385 9.1692 17.1397 12.0068 17.1397C14.8444 17.1397 17.1465 14.8385 17.1465 12.002C17.1465 9.16549 14.8444 6.86426 12.0068 6.86426ZM12.0068 15.3347C10.1659 15.3347 8.67281 13.8422 8.67281 12.002C8.67281 10.1618 10.1659 8.6693 12.0068 8.6693C13.8477 8.6693 15.3408 10.1618 15.3408 12.002C15.3408 13.8422 13.8477 15.3347 12.0068 15.3347Z" fill="white"/>
<path d="M18.5472 6.66088C18.5472 7.32507 18.0081 7.86034 17.3478 7.86034C16.6836 7.86034 16.1483 7.32117 16.1483 6.66088C16.1483 5.99669 16.6875 5.46143 17.3478 5.46143C18.0081 5.46143 18.5472 6.00059 18.5472 6.66088Z" fill="white"/>
</svg>
