<svg width="24" height="24" viewBox="0 0 24 24" fill="none" xmlns="http://www.w3.org/2000/svg">
<path d="M12.4243 18.5923L8.49037 18.5204C7.21664 18.4954 5.93973 18.5454 4.69098 18.286C2.79133 17.8986 2.65675 15.9988 2.51593 14.4052C2.32189 12.1649 2.39701 9.88389 2.76318 7.66224C2.9699 6.41567 3.78342 5.67182 5.04149 5.59088C9.28842 5.29712 13.5636 5.33194 17.8011 5.46898C18.2486 5.48155 18.6993 5.55022 19.1405 5.62838C21.3189 6.0096 21.372 8.16248 21.5132 9.9748C21.654 11.8058 21.5946 13.6462 21.3254 15.4648C21.1095 16.9705 20.6963 18.2332 18.9528 18.3551C16.7682 18.5145 14.6338 18.6428 12.4431 18.602C12.4432 18.5923 12.4306 18.5923 12.4243 18.5923ZM10.1115 14.7802C11.7578 13.8365 13.3726 12.9085 15.0095 11.9712C13.3601 11.0275 11.7484 10.0995 10.1115 9.1621V14.7802Z" fill="white"/>
</svg>
